<?xml version="1.0" standalone="no"?><svg xmlns="http://www.w3.org/2000/svg" viewBox="0 0 1440 320"><path fill="#232c5e" fill-opacity="1" d="M0,256L21.8,229.3C43.6,203,87,149,131,128C174.5,107,218,117,262,106.7C305.5,96,349,64,393,74.7C436.4,85,480,139,524,149.3C567.3,160,611,128,655,122.7C698.2,117,742,139,785,128C829.1,117,873,75,916,58.7C960,43,1004,53,1047,74.7C1090.9,96,1135,128,1178,122.7C1221.8,117,1265,75,1309,69.3C1352.7,64,1396,96,1418,112L1440,128L1440,0L1418.2,0C1396.4,0,1353,0,1309,0C1265.5,0,1222,0,1178,0C1134.5,0,1091,0,1047,0C1003.6,0,960,0,916,0C872.7,0,829,0,785,0C741.8,0,698,0,655,0C610.9,0,567,0,524,0C480,0,436,0,393,0C349.1,0,305,0,262,0C218.2,0,175,0,131,0C87.3,0,44,0,22,0L0,0Z"></path></svg>