<svg width="2728" height="606" viewBox="0 0 2728 606" fill="none" xmlns="http://www.w3.org/2000/svg">
<rect width="2728" height="606" fill="#1E1E1E"/>
<g clip-path="url(#clip0_0_1)">
<rect width="2728" height="606" fill="white"/>
<path d="M0 121.2L64.9794 161.537C129.959 202.631 259.539 282.169 390.256 262.663C519.646 242.4 649.794 121.2 778.617 141.463C909.333 160.969 1040.05 323.831 1168.87 383.863C1299.02 445.031 1428.41 403.369 1559.13 333.3C1688.71 263.231 1818.67 160.969 1949.38 100.937C2078.4 39.7688 2208.92 20.8313 2337.74 100.937C2468.27 181.8 2597.28 363.6 2663.59 454.5L2728 545.4V0H2663.02C2598.04 0 2468.46 0 2337.74 0C2208.35 0 2078.21 0 1949.38 0C1818.67 0 1687.95 0 1559.13 0C1428.98 0 1299.59 0 1168.87 0C1039.29 0 909.333 0 778.617 0C649.605 0 519.078 0 390.256 0C259.728 0 130.717 0 64.4111 0H0V121.2Z" fill="#232C5E"/>
</g>
<defs>
<clipPath id="clip0_0_1">
<rect width="2728" height="606" fill="white"/>
</clipPath>
</defs>
</svg>
